<svg xmlns="http://www.w3.org/2000/svg" width="135.534" height="37.393" viewBox="0 0 135.534 37.393">
  <defs>
    <style>
      .cls-1 {
        fill: #009bcb;
      }

      .cls-2 {
        fill: rgba(228,121,0,0.79);
      }

      .cls-3 {
        fill: #fff;
        font-size: 23px;
        font-family: SegoeUI-Bold, Segoe UI;
        font-weight: 700;
        letter-spacing: 0.019em;
      }
    </style>
  </defs>
  <g id="WhiteLogo" transform="matrix(0.966, -0.259, 0.259, 0.966, -149.022, 24.295)">
    <path id="Path_2" data-name="Path 2" class="cls-1" d="M2.877,0A3.2,3.2,0,0,1,5.97,2.969l.509,13.338A2.673,2.673,0,0,1,3.6,19.056,3.2,3.2,0,0,1,.511,16.089L0,2.751A2.673,2.673,0,0,1,2.877,0Z" transform="translate(273.993 48.265) rotate(60)"/>
    <path id="Path_1" data-name="Path 1" class="cls-2" d="M2.877,0A3.2,3.2,0,0,1,5.97,2.969l.509,13.338A2.673,2.673,0,0,1,3.6,19.056,3.2,3.2,0,0,1,.511,16.089L0,2.751A2.673,2.673,0,0,1,2.877,0Z" transform="translate(274.909 55.755) rotate(60)"/>
    <text id="_28andTwo_" data-name="28andTwo        " class="cls-3" transform="matrix(0.966, 0.259, -0.259, 0.966, 149.095, 19.346)"><tspan x="0" y="25" xml:space="preserve">28andTwo        </tspan></text>
  </g>
</svg>
